<svg width="14" height="16" viewBox="0 0 14 16" fill="none" xmlns="http://www.w3.org/2000/svg">
<path d="M6.8795 9.93681V11.4656M2.29318 14.5231H11.4658C11.8713 14.5231 12.2601 14.3621 12.5468 14.0754C12.8335 13.7887 12.9946 13.3998 12.9946 12.9944V8.40803C12.9946 8.00258 12.8335 7.61373 12.5468 7.32703C12.2601 7.04033 11.8713 6.87926 11.4658 6.87926H2.29318C1.88772 6.87926 1.49887 7.04033 1.21217 7.32703C0.925471 7.61373 0.764404 8.00258 0.764404 8.40803V12.9944C0.764404 13.3998 0.925471 13.7887 1.21217 14.0754C1.49887 14.3621 1.88772 14.5231 2.29318 14.5231ZM9.93705 6.87926V3.82171C9.93705 3.0108 9.61492 2.2331 9.04152 1.6597C8.46812 1.08629 7.69042 0.76416 6.8795 0.76416C6.06859 0.76416 5.29089 1.08629 4.71749 1.6597C4.14409 2.2331 3.82195 3.0108 3.82195 3.82171V6.87926H9.93705Z" stroke="#00A63E" stroke-width="1.52877" stroke-linecap="round" stroke-linejoin="round"/>
</svg>
