<svg width="16" height="16" viewBox="0 0 16 16" fill="none" xmlns="http://www.w3.org/2000/svg">
<path d="M5.35619 7.65172L6.88655 9.18207L9.94725 6.12137M14.5383 7.65172C14.5383 8.55608 14.3602 9.45158 14.0141 10.2871C13.668 11.1226 13.1608 11.8818 12.5213 12.5213C11.8818 13.1608 11.1226 13.668 10.2871 14.0141C9.45158 14.3602 8.55608 14.5383 7.65172 14.5383C6.74736 14.5383 5.85186 14.3602 5.01634 14.0141C4.18082 13.668 3.42165 13.1608 2.78217 12.5213C2.14269 11.8818 1.63543 11.1226 1.28935 10.2871C0.943263 9.45158 0.765137 8.55608 0.765137 7.65172C0.765137 5.82529 1.49069 4.07366 2.78217 2.78217C4.07366 1.49069 5.82529 0.765137 7.65172 0.765137C9.47816 0.765137 11.2298 1.49069 12.5213 2.78217C13.8128 4.07366 14.5383 5.82529 14.5383 7.65172Z" stroke="#00A63E" stroke-width="1.53035" stroke-linecap="round" stroke-linejoin="round"/>
</svg>
