<svg width="33" height="17" viewBox="0 0 33 17" fill="none" xmlns="http://www.w3.org/2000/svg">
<path d="M24.048 16.416C22.656 16.416 21.432 16.224 20.376 15.84C19.344 15.432 18.444 14.904 17.676 14.256C16.908 13.608 16.224 12.9 15.624 12.132C15.048 11.34 14.508 10.56 14.004 9.79198C13.524 8.99998 13.032 8.27998 12.528 7.63198C12.048 6.98398 11.52 6.46798 10.944 6.08398C10.368 5.67598 9.70802 5.47198 8.96402 5.47198C8.48402 5.47198 8.05202 5.59198 7.66802 5.83198C7.28402 6.07198 6.97202 6.39598 6.73202 6.80398C6.51602 7.21198 6.40802 7.67998 6.40802 8.20798C6.40802 8.71198 6.51602 9.17998 6.73202 9.61198C6.97202 10.02 7.28402 10.344 7.66802 10.584C8.05202 10.824 8.48402 10.944 8.96402 10.944C9.70802 10.944 10.368 10.752 10.944 10.368C11.52 9.95998 12.048 9.43198 12.528 8.78398C13.032 8.13598 13.524 7.42798 14.004 6.65998C14.508 5.86798 15.048 5.08798 15.624 4.31998C16.224 3.52798 16.908 2.80798 17.676 2.15998C18.444 1.51198 19.344 0.995982 20.376 0.611982C21.432 0.203983 22.656 -1.69277e-05 24.048 -1.69277e-05C25.608 -1.69277e-05 27.012 0.359983 28.26 1.07998C29.508 1.77598 30.492 2.74798 31.212 3.99598C31.932 5.21998 32.292 6.62398 32.292 8.20798C32.292 9.76798 31.932 11.172 31.212 12.42C30.492 13.668 29.508 14.652 28.26 15.372C27.012 16.068 25.608 16.416 24.048 16.416ZM8.38802 16.416C6.80402 16.416 5.37602 16.068 4.10402 15.372C2.83202 14.652 1.82402 13.668 1.08002 12.42C0.360019 11.172 1.86116e-05 9.76798 1.86116e-05 8.20798C1.86116e-05 6.62398 0.360019 5.21998 1.08002 3.99598C1.82402 2.74798 2.83202 1.77598 4.10402 1.07998C5.37602 0.359983 6.80402 -1.69277e-05 8.38802 -1.69277e-05C9.78002 -1.69277e-05 10.992 0.203983 12.024 0.611982C13.056 0.995982 13.956 1.51198 14.724 2.15998C15.492 2.80798 16.164 3.52798 16.74 4.31998C17.316 5.08798 17.844 5.86798 18.324 6.65998C18.804 7.42798 19.284 8.13598 19.764 8.78398C20.244 9.43198 20.772 9.95998 21.348 10.368C21.924 10.752 22.584 10.944 23.328 10.944C23.832 10.944 24.276 10.824 24.66 10.584C25.044 10.344 25.344 10.02 25.56 9.61198C25.776 9.17998 25.884 8.71198 25.884 8.20798C25.884 7.67998 25.776 7.21198 25.56 6.80398C25.344 6.39598 25.044 6.07198 24.66 5.83198C24.276 5.59198 23.832 5.47198 23.328 5.47198C22.584 5.47198 21.924 5.67598 21.348 6.08398C20.772 6.46798 20.244 6.98398 19.764 7.63198C19.284 8.27998 18.804 8.99998 18.324 9.79198C17.844 10.56 17.316 11.34 16.74 12.132C16.164 12.9 15.492 13.608 14.724 14.256C13.956 14.904 13.056 15.432 12.024 15.84C10.992 16.224 9.78002 16.416 8.38802 16.416Z" fill="#FFEAB6"/>
</svg>
